<svg width="30" height="30" viewBox="0 0 30 30" fill="none" xmlns="http://www.w3.org/2000/svg">
<g clip-path="url(#clip0_1_2)">
<path d="M13 10C13.0002 9.64888 12.908 9.30389 12.7325 8.99973C12.5571 8.69556 12.3047 8.44294 12.0007 8.26725C11.6967 8.09157 11.3518 7.99901 11.0007 7.99889C10.6496 7.99876 10.3046 8.09108 10.0005 8.26656C9.69636 8.44203 9.44378 8.69448 9.26816 8.99852C9.09254 9.30257 9.00005 9.64749 9 9.99861C8.99995 10.3497 9.09234 10.6947 9.26788 10.9988C9.44342 11.3029 9.69592 11.5554 10 11.7309V18.2691C9.61872 18.4892 9.32073 18.829 9.15224 19.2357C8.98376 19.6425 8.9542 20.0935 9.06815 20.5187C9.1821 20.944 9.43319 21.3198 9.78248 21.5878C10.1318 21.8558 10.5597 22.0011 11 22.0011C11.4403 22.0011 11.8682 21.8558 12.2175 21.5878C12.5668 21.3198 12.8179 20.944 12.9319 20.5187C13.0458 20.0935 13.0162 19.6425 12.8478 19.2357C12.6793 18.829 12.3813 18.4892 12 18.2691V11.7309C12.3039 11.5555 12.5562 11.3032 12.7318 10.9994C12.9073 10.6955 12.9998 10.3509 13 10ZM11 9C11.1978 9 11.3911 9.05865 11.5556 9.16853C11.72 9.27841 11.8482 9.43459 11.9239 9.61732C11.9996 9.80004 12.0194 10.0011 11.9808 10.1951C11.9422 10.3891 11.847 10.5673 11.7071 10.7071C11.5673 10.847 11.3891 10.9422 11.1951 10.9808C11.0011 11.0194 10.8 10.9996 10.6173 10.9239C10.4346 10.8482 10.2784 10.72 10.1685 10.5556C10.0586 10.3911 10 10.1978 10 10C10 9.73478 10.1054 9.48043 10.2929 9.29289C10.4804 9.10536 10.7348 9 11 9ZM11 21C10.8022 21 10.6089 20.9413 10.4444 20.8315C10.28 20.7216 10.1518 20.5654 10.0761 20.3827C10.0004 20.2 9.98063 19.9989 10.0192 19.8049C10.0578 19.6109 10.153 19.4327 10.2929 19.2929C10.4327 19.153 10.6109 19.0578 10.8049 19.0192C10.9989 18.9806 11.2 19.0004 11.3827 19.0761C11.5654 19.1518 11.7216 19.28 11.8315 19.4444C11.9414 19.6089 12 19.8022 12 20C12 20.2652 11.8946 20.5196 11.7071 20.7071C11.5196 20.8946 11.2652 21 11 21Z" fill="#7C3AED"/>
<path d="M20 18.2691V11.875C19.9992 11.1128 19.696 10.382 19.157 9.84298C18.618 9.30399 17.8872 9.00082 17.125 9H16.5V8C16.5 7.90114 16.4706 7.80452 16.4157 7.72233C16.3607 7.64015 16.2826 7.5761 16.1913 7.53828C16.1 7.50045 15.9995 7.49055 15.9025 7.50982C15.8056 7.5291 15.7165 7.57668 15.6466 7.64656L13.6466 9.64656C13.5529 9.74032 13.5002 9.86745 13.5002 10C13.5002 10.1325 13.5529 10.2597 13.6466 10.3534L15.6466 12.3534C15.7165 12.4233 15.8056 12.4709 15.9025 12.4902C15.9995 12.5094 16.1 12.4995 16.1913 12.4617C16.2826 12.4239 16.3607 12.3598 16.4157 12.2777C16.4706 12.1955 16.5 12.0989 16.5 12V11H17.125C17.3571 11 17.5796 11.0922 17.7437 11.2563C17.9078 11.4204 18 11.6429 18 11.875V18.2691C17.6187 18.4892 17.3207 18.829 17.1522 19.2357C16.9838 19.6425 16.9542 20.0935 17.0681 20.5187C17.1821 20.944 17.4332 21.3198 17.7825 21.5878C18.1318 21.8558 18.5597 22.0011 19 22.0011C19.4403 22.0011 19.8682 21.8558 20.2175 21.5878C20.5668 21.3198 20.8179 20.944 20.9318 20.5187C21.0458 20.0935 21.0162 19.6425 20.8478 19.2357C20.6793 18.829 20.3813 18.4892 20 18.2691ZM19 21C18.8022 21 18.6089 20.9413 18.4444 20.8315C18.28 20.7216 18.1518 20.5654 18.0761 20.3827C18.0004 20.2 17.9806 19.9989 18.0192 19.8049C18.0578 19.6109 18.153 19.4327 18.2929 19.2929C18.4327 19.153 18.6109 19.0578 18.8049 19.0192C18.9989 18.9806 19.2 19.0004 19.3827 19.0761C19.5654 19.1518 19.7216 19.28 19.8315 19.4444C19.9413 19.6089 20 19.8022 20 20C20 20.2652 19.8946 20.5196 19.7071 20.7071C19.5196 20.8946 19.2652 21 19 21Z" fill="#7C3AED"/>
</g>
<defs>
<clipPath id="clip0_1_2">
<rect width="30" height="30" fill="white"/>
</clipPath>
</defs>
</svg>
